#N canvas 889 302 594 533 10;
#X text 36 16 USE CASE : Polyphony support for instruments and sounds
;
#X obj 47 336 i-example-m inst1;
#X obj 185 468 dac~;
#X msg 47 76 60 127;
#X msg 257 162 stop;
#X obj 94 242 poly 3 1;
#X msg 193 76 60 0;
#X obj 324 338 i-example-m inst1;
#X obj 183 338 i-example-m inst1;
#X obj 94 271 pack f f f, f 12;
#X obj 94 293 route 1 2 3;
#X obj 184 436 *~ 0.3;
#X msg 80 99 65 127;
#X msg 111 122 72 127;
#X msg 258 122 72 0;
#X msg 226 99 65 0;
#X text 214 248 <- warning poly doesn't support extra data : use freepoly
, f 31;
#X connect 1 0 11 0;
#X connect 3 0 5 0;
#X connect 4 0 5 0;
#X connect 5 0 9 0;
#X connect 5 1 9 1;
#X connect 5 2 9 2;
#X connect 6 0 5 0;
#X connect 7 0 11 0;
#X connect 8 0 11 0;
#X connect 9 0 10 0;
#X connect 10 0 1 0;
#X connect 10 1 8 0;
#X connect 10 2 7 0;
#X connect 11 0 2 0;
#X connect 11 0 2 1;
#X connect 12 0 5 0;
#X connect 13 0 5 0;
#X connect 14 0 5 0;
#X connect 15 0 5 0;
