#N canvas 242 294 1339 694 10;
#X obj 213 268 i-example-m;
#X obj 606 579 dac~;
#X msg 134 172 64 0;
#X obj 597 495 e-example-ms;
#X obj 140 114 tgl 15 0 empty empty empty 17 7 0 10 -262144 -1 -1 1
1;
#X obj 213 168 m-random 46 57 1600;
#X obj 213 220 m-arpeggio 6 5 180 arp;
#X obj 213 328 e-overdrive-m od1 2;
#X text 410 166 <- MIDI sequence generator;
#X text 409 221 <- MIDI effect;
#X msg 79 171 60 64;
#X msg 15 171 61 127, f 7;
#X msg 136 234 64 0;
#X msg 81 233 60 64;
#X msg 17 233 61 127, f 7;
#X text 712 442 <- audio mix;
#X obj 754 268 s-snare snare2 7500;
#X text 705 576 <- AUDIO OUTPUT;
#X obj 672 147 key;
#X obj 672 169 list 127;
#X text 763 159 <- just transfrom some key to midi notes (velocity
127), f 29;
#X obj 672 194 route 97 122;
#X obj 597 267 s-snare snare1 1500;
#X obj 598 443 *~ 0.9;
#X obj 484 443 *~ 0.3;
#X text 906 268 <- triggering some SOUNDS;
#X text 706 494 <- EFFECT stereo delay;
#X text 402 327 <- EFFECT mono overdrive;
#X text 407 269 <- INSTRUMENT mono;
#X text 64 25 USE CASE : I want something simple \, a simple graph
for my audio chain with minimum necessary connections.;
#X connect 0 0 7 0;
#X connect 2 0 6 0;
#X connect 3 0 1 0;
#X connect 3 1 1 1;
#X connect 4 0 5 0;
#X connect 5 0 6 0;
#X connect 6 0 0 0;
#X connect 7 0 24 0;
#X connect 10 0 6 0;
#X connect 11 0 6 0;
#X connect 12 0 0 0;
#X connect 13 0 0 0;
#X connect 14 0 0 0;
#X connect 16 0 23 0;
#X connect 18 0 19 0;
#X connect 19 0 21 0;
#X connect 21 0 22 0;
#X connect 21 1 16 0;
#X connect 22 0 23 0;
#X connect 23 0 3 0;
#X connect 24 0 3 0;
