#N canvas 351 323 623 606 10;
#X text 66 20 USE CASE : Synchronization;
#X obj 73 390 i-example-m;
#X obj 73 532 dac~;
#X msg 44 138 start;
#X msg 102 138 stop;
#X obj 365 176 c-hsl clock1-bpm 40 360;
#X obj 72 489 *~ 0.5;
#X obj 73 263 m-free-seq seq1 5 40;
#X obj 265 421 * 3;
#X obj 72 450 e-delay-sync delay1 4000 0.7;
#X obj 73 184 u-clock clock1 60;
#X obj 265 397 r clock1-bpm;
#X text 66 40 Instead of wire lot of cables and kill comprhension \,
variable like BPM can be retrieve using abs parameter name as receiver.
It allows multiple clocks \, ...etc;
#X obj 73 222 u-reclock 24;
#X connect 1 0 9 0;
#X connect 3 0 10 0;
#X connect 4 0 10 0;
#X connect 6 0 2 0;
#X connect 6 0 2 1;
#X connect 7 0 1 0;
#X connect 8 0 9 1;
#X connect 9 0 6 0;
#X connect 10 0 13 0;
#X connect 11 0 8 0;
#X connect 13 0 7 0;
