#N canvas 885 308 909 586 10;
#X obj 467 310 soundfiler;
#N canvas 0 50 450 250 (subpatch) 0;
#X array waveform 10 float 2;
#X coords 0 10 10 -10 200 140 1 0 0;
#X restore 658 293 graph;
#X msg 490 157 write -nextstep -bytes 4 waveform2 waveform;
#X msg 467 132 write -nextstep -bytes 4 waveform1 waveform;
#X msg 521 188 read -resize waveform1.snd waveform;
#X msg 542 223 read -resize waveform2.snd waveform;
#X floatatom 500 339 5 0 0 0 - - -, f 5;
#X obj 555 518 tabread waveform;
#X obj 471 420 metro 500;
#X obj 471 442 f 0;
#X obj 501 442 + 1;
#X obj 556 458 %;
#X floatatom 555 540 5 0 0 0 - - -, f 5;
#X obj 490 372 t b f;
#X msg 445 390 0;
#X msg 71 515 \; waveform read table.txt;
#X obj 48 385 i-example-m;
#X obj 48 427 dac~;
#X msg 19 173 start;
#X msg 77 173 stop;
#X obj 48 219 u-clock clock1 200;
#X text 19 471 TODO array can be saved as text ... best for manual
editing ... etc, f 36;
#X obj 48 258 m-free-seq seq1 14 60;
#X text 24 6 USE CASE : save/load tables;
#X text 27 26 save/load tables of float values or wavefile should be
in 2 formats : simple text file useful for manual editing and large
binary wave tables.;
#X connect 0 0 6 0;
#X connect 0 0 13 0;
#X connect 2 0 0 0;
#X connect 3 0 0 0;
#X connect 4 0 0 0;
#X connect 5 0 0 0;
#X connect 7 0 12 0;
#X connect 8 0 9 0;
#X connect 9 0 10 0;
#X connect 9 0 11 0;
#X connect 10 0 9 1;
#X connect 11 0 7 0;
#X connect 13 0 8 0;
#X connect 13 1 11 1;
#X connect 14 0 8 0;
#X connect 16 0 17 0;
#X connect 16 0 17 1;
#X connect 18 0 20 0;
#X connect 19 0 20 0;
#X connect 20 0 22 0;
#X connect 22 0 16 0;
