#N canvas 814 335 594 533 10;
#X text 36 16 USE CASE : Polyphony support for instruments and sounds
;
#X obj 96 472 dac~;
#X msg 47 76 60 127;
#X msg 257 162 stop;
#X msg 193 76 60 0;
#X obj 95 440 *~ 0.3;
#X msg 80 99 65 127;
#X msg 111 122 72 127;
#X msg 258 122 72 0;
#X msg 226 99 65 0;
#X text 334 313 <- warning poly doesn't support extra data : use freepoly
, f 31;
#X obj 94 319 u-makepoly 3 1 i-example-m inst1;
#X obj 94 242 t a;
#X connect 2 0 12 0;
#X connect 3 0 12 0;
#X connect 4 0 12 0;
#X connect 5 0 1 0;
#X connect 5 0 1 1;
#X connect 6 0 12 0;
#X connect 7 0 12 0;
#X connect 8 0 12 0;
#X connect 9 0 12 0;
#X connect 11 0 5 0;
#X connect 12 0 11 0;
