#N canvas 112 119 1795 951 12;
#N canvas 486 318 450 300 effect-m 0;
#X obj 96 48 inlet~;
#X obj 105 217 outlet~;
#X restore 664 609 pd effect-m;
#N canvas 486 318 450 300 effect-s 0;
#X obj 96 48 inlet~;
#X obj 105 217 outlet~;
#X restore 819 612 pd effect-s;
#X text 835 383 STEREO;
#X text 965 382 MULTI-CHANNEL;
#N canvas 615 488 673 300 any-of-api-abstractions 0;
#X obj 33 24 inlet~;
#X obj 113 26 inlet~;
#X obj 209 27 inlet~;
#X obj 316 37 inlet params;
#X obj 151 247 outlet~;
#X obj 230 249 outlet~;
#X obj 61 246 outlet~;
#X obj 315 244 outlet params;
#X obj 352 111 route freq q gain;
#X connect 3 0 8 0;
#X restore 688 222 pd any-of-api-abstractions;
#X text 396 162 some some outlets/outlets~ ->;
#X text 776 25 GLOBAL;
#X text 631 297 note : effect == VST \, instrument == VSTi;
#X text 377 87 some inlets (events)/inlets~ ->;
#X text 950 89 <- last inlet "params" : globally applied to all events
;
#N canvas 276 241 673 300 any-of-api-abstractions 0;
#X obj 33 24 inlet~;
#X obj 113 26 inlet~;
#X obj 209 27 inlet~;
#X obj 316 37 inlet params;
#X obj 151 247 outlet~;
#X obj 230 249 outlet~;
#X obj 61 246 outlet~;
#X obj 315 244 outlet params;
#X connect 3 0 7 0;
#X restore 688 124 pd any-of-api-abstractions;
#X text 1038 212 PARAMS format : name1 value1 \, name2 value2 \, ...
;
#X text 29 216 inlet any message;
#X text 27 335 message format : key value;
#X text 27 313 outlet forward inlet messages + own messages (freq value)
;
#N canvas 65 81 450 300 controller 0;
#X obj 138 75 inlet;
#X obj 155 210 outlet;
#X restore 114 260 pd controller freq;
#X text 953 149 <- last outlet "params" : forward inlet params (optional
use), f 66;
#N canvas 486 318 450 300 effect-ms 0;
#X obj 96 48 inlet~;
#X obj 105 217 outlet~;
#X restore 662 642 pd effect-ms;
#N canvas 486 318 450 300 effect-sm 0;
#X obj 96 48 inlet~;
#X obj 105 217 outlet~;
#X restore 818 643 pd effect-sm;
#X text 463 725 events (list) : note + velocity + data... ->;
#X text 760 897 audio channel ->;
#X text 743 767 audio channel ->;
#X text 684 382 MONO;
#X text 470 647 audio channels ->;
#X text 469 608 audio channels ->;
#N canvas 607 643 450 300 s-name-y 0;
#X obj 113 193 outlet~;
#X obj 278 55 inlet params;
#X obj 55 68 inlet event;
#X restore 963 875 pd s-name-y;
#X text 1155 632 EFFECTS (audio processing);
#N canvas 65 93 450 300 i-name-y 0;
#X obj 65 40 inlet midi;
#X obj 71 197 outlet~ audio;
#X obj 210 40 inlet params;
#X obj 283 204 outlet;
#X obj 71 197 outlet~ audio;
#X obj 71 197 outlet~ audio;
#X obj 71 197 outlet~ audio;
#X restore 967 743 pd i-name-y;
#N canvas 530 383 450 300 e-name-xy 0;
#X obj 28 154 outlet~ channel-1;
#X obj 90 183 outlet~ channel-2;
#X obj 174 200 outlet~ channel-3;
#X obj 270 224 outlet~ channel-4;
#X obj 184 22 inlet params;
#X obj 23 44 inlet~ audio;
#X obj 59 67 inlet~ audio;
#X obj 46 21 inlet~ audio;
#X obj 46 21 inlet~ audio;
#X restore 965 627 pd e-name-xy;
#X text 110 857 velocity + data... (or on/off in case of pure generator
to enable/diable it) ->, f 81;
#X text 1147 742 INSTRUMENT (procedural/sampler);
#X text 1153 878 SOUND (procedural/sampler);
#X text 1186 902 like instrument without note;
#X text 241 466 events (or on/off in case of pure generator to enable/diable
it) ->, f 69;
#X text 739 499 events generated ->;
#N canvas 607 643 450 300 a-name-y 0;
#X obj 113 193 outlet~;
#X obj 278 55 inlet params;
#X obj 55 68 inlet event;
#X restore 979 568 pd a-name-y;
#N canvas 607 643 450 300 me-name-y 0;
#X obj 113 193 outlet~;
#X obj 278 55 inlet params;
#X obj 55 68 inlet event;
#X restore 977 480 pd me-name-y;
#N canvas 604 647 450 300 seq-name-y 0;
#X obj 113 193 outlet~;
#X obj 278 55 inlet params;
#X obj 55 68 inlet event;
#X obj 113 193 outlet~;
#X restore 979 432 pd seq-name-y;
#X text 1133 551 ANALYSER (audio to events(can be MIDI or can be parameters
key value messages)), f 37;
#X text 1144 432 SEQUENCER (playback controls/events) ???;
#X text 1142 486 MIDI EFFECT ???;
#X obj 257 340 example-controller;
#X connect 10 3 4 3;
