#N canvas 65 133 450 414 10;
#X obj 227 17 inlet;
#X obj 316 291 outlet;
#X obj 168 115 hsl 128 15 0 127 0 0 empty empty empty -2 -8 0 10 -262144
-1 -1 6400 1;
#X obj 165 152 list prepend \$1;
#X obj 165 187 list trim;
#X obj 228 41 route \$1 bang;
#X obj 272 69 t b b;
#X connect 0 0 5 0;
#X connect 2 0 3 0;
#X connect 3 0 4 0;
#X connect 4 0 1 0;
#X connect 5 0 2 0;
#X connect 5 1 6 0;
#X connect 5 2 1 0;
#X connect 6 0 1 0;
#X connect 6 1 2 0;
#X coords 0 -1 1 1 200 32 1 100 100;
