#N canvas 713 322 663 300 10;
#X obj 181 26 key;
#X obj 259 25 keyup;
#X msg 181 71 \$1 127;
#X msg 259 73 \$1 0;
#X obj 181 175 outlet;
#X obj 181 147 spigot 0;
#X obj 234 119 inlet;
#X connect 0 0 2 0;
#X connect 1 0 3 0;
#X connect 2 0 5 0;
#X connect 3 0 5 0;
#X connect 5 0 4 0;
#X connect 6 0 5 1;
