#N canvas 348 258 1482 693 10;
#X obj 277 53 notein;
#X obj 941 60 ctlin;
#X obj 797 523 outlet;
#X obj 266 169 route 8 24 40 56 72 88 104 120;
#X obj 266 116 pack f f f;
#X obj 1142 643 outlet;
#X msg 4 348 \$1 vol;
#X msg 75 347 \$1 pan;
#X msg 146 349 \$1 sndA;
#X msg 222 353 \$1 sndB;
#X msg 299 353 \$1 stop;
#X msg 382 350 \$1 trkon;
#X msg 464 350 \$1 solo;
#X msg 539 346 \$1 arm;
#X msg 681 204 \$1 \$2;
#X obj 245 457 route 0 127;
#X obj 1142 617 list trim;
#X obj 925 123 pack f f f;
#X obj 1114 424 route 0 127;
#X obj 925 163 route 104 105 106 107 108 109 110 111;
#X msg 873 315 \$1 up;
#X msg 944 314 \$1 down;
#X msg 1015 316 \$1 left;
#X msg 1091 320 \$1 right;
#X msg 1168 320 \$1 session;
#X msg 1251 317 \$1 user1;
#X msg 1333 317 \$1 user2;
#X msg 1408 313 \$1 mixer;
#X obj 930 93 swap;
#X obj 681 229 list prepend \$2;
#X obj 796 484 list trim;
#N canvas 1238 444 450 300 row-col 0;
#X obj 150 66 inlet;
#X obj 150 88 unpack f f;
#X obj 140 157 >> 4;
#X obj 193 151 & 7;
#X obj 149 118 t f f;
#X obj 141 183 outlet;
#X obj 193 183 outlet;
#X obj 248 184 outlet;
#X connect 0 0 1 0;
#X connect 1 0 4 0;
#X connect 1 1 7 0;
#X connect 2 0 5 0;
#X connect 3 0 6 0;
#X connect 4 0 2 0;
#X connect 4 1 3 0;
#X restore 712 330 pd row-col;
#X obj 712 357 pack f f f;
#N canvas 1238 444 450 300 row-col 0;
#X obj 150 66 inlet;
#X obj 150 88 unpack f f;
#X obj 140 157 >> 4;
#X obj 193 151 & 7;
#X obj 149 118 t f f;
#X obj 141 183 outlet;
#X obj 193 183 outlet;
#X obj 248 184 outlet;
#X connect 0 0 1 0;
#X connect 1 0 4 0;
#X connect 1 1 7 0;
#X connect 2 0 5 0;
#X connect 3 0 6 0;
#X connect 4 0 2 0;
#X connect 4 1 3 0;
#X restore 625 324 pd row-col;
#X obj 608 402 * 5;
#X obj 630 438 +;
#X obj 630 460 + 48;
#X obj 630 482 pack f f;
#X obj 608 348 swap 7;
#X obj 608 370 -;
#X obj 681 273 route guitar grid raw;
#X obj 681 252 list trim;
#X connect 0 0 4 0;
#X connect 0 1 4 1;
#X connect 0 2 4 2;
#X connect 1 0 28 0;
#X connect 1 1 28 1;
#X connect 1 2 17 2;
#X connect 3 0 6 0;
#X connect 3 1 7 0;
#X connect 3 2 8 0;
#X connect 3 3 9 0;
#X connect 3 4 10 0;
#X connect 3 5 11 0;
#X connect 3 6 12 0;
#X connect 3 7 13 0;
#X connect 3 8 14 0;
#X connect 4 0 3 0;
#X connect 6 0 15 0;
#X connect 7 0 15 0;
#X connect 8 0 15 0;
#X connect 9 0 15 0;
#X connect 10 0 15 0;
#X connect 11 0 15 0;
#X connect 12 0 15 0;
#X connect 13 0 15 0;
#X connect 14 0 29 0;
#X connect 15 1 16 0;
#X connect 16 0 5 0;
#X connect 17 0 19 0;
#X connect 18 1 16 0;
#X connect 19 0 20 0;
#X connect 19 1 21 0;
#X connect 19 2 22 0;
#X connect 19 3 23 0;
#X connect 19 4 24 0;
#X connect 19 5 25 0;
#X connect 19 6 26 0;
#X connect 19 7 27 0;
#X connect 20 0 18 0;
#X connect 21 0 18 0;
#X connect 22 0 18 0;
#X connect 23 0 18 0;
#X connect 24 0 18 0;
#X connect 25 0 18 0;
#X connect 26 0 18 0;
#X connect 27 0 18 0;
#X connect 28 0 17 0;
#X connect 28 1 17 1;
#X connect 29 0 41 0;
#X connect 30 0 2 0;
#X connect 31 0 32 0;
#X connect 31 1 32 1;
#X connect 31 2 32 2;
#X connect 32 0 30 0;
#X connect 33 0 38 0;
#X connect 33 1 35 1;
#X connect 33 2 37 1;
#X connect 34 0 35 0;
#X connect 35 0 36 0;
#X connect 36 0 37 0;
#X connect 37 0 30 0;
#X connect 38 0 39 0;
#X connect 38 1 39 1;
#X connect 39 0 34 0;
#X connect 40 0 33 0;
#X connect 40 1 31 0;
#X connect 40 2 30 0;
#X connect 41 0 40 0;
