#N canvas 910 393 450 300 10;
#X obj 76 48 inlet~;
#X obj 77 261 outlet~;
#X obj 130 181 delwrite~ \$0-delay \$2;
#X obj 151 63 delread~ \$0-delay \$2;
#X obj 151 139 clip~ -0.99 0.99;
#X obj 332 48 inlet bpm;
#X obj 335 145 u-bpmtoms;
#X obj 151 117 *~ \$3;
#X connect 0 0 2 0;
#X connect 0 0 1 0;
#X connect 3 0 1 0;
#X connect 3 0 7 0;
#X connect 4 0 2 0;
#X connect 5 0 6 0;
#X connect 6 0 3 0;
#X connect 7 0 4 0;
