#N canvas 65 97 450 300 10;
#X obj 138 37 inlet~;
#X obj 75 208 outlet~;
#X obj 226 211 outlet~;
#X obj 179 73 delwrite~ \$0-echo 500;
#X obj 379 64 inlet;
#X obj 378 197 outlet;
#X obj 340 133 route pan;
#X obj 331 160 / 127;
#X obj 331 182 * 500;
#X obj 178 109 delread4~ \$0-echo 80;
#X obj 324 209 sig~ 80;
#X obj 324 237 lop~ 0.1;
#X connect 0 0 1 0;
#X connect 0 0 3 0;
#X connect 4 0 6 0;
#X connect 4 0 5 0;
#X connect 6 0 7 0;
#X connect 7 0 8 0;
#X connect 8 0 10 0;
#X connect 9 0 2 0;
#X connect 10 0 11 0;
#X connect 11 0 9 0;
