#N canvas 184 244 514 758 10;
#X obj 202 652 outlet~;
#X obj 45 332 / 343;
#X obj 45 354 * 1000;
#X floatatom 61 383 5 0 0 0 - - -, f 5;
#X obj 39 415 lop~ 1;
#X obj 158 428 lop~ 1;
#X floatatom 222 421 5 0 0 0 - - -, f 5;
#X obj 46 16 inlet;
#X obj 38 458 delread4~ \$1;
#X obj 229 49 r ecart;
#X obj 46 55 unpack f f;
#X obj 46 183 pack f f;
#X obj 213 169 unpack f f;
#X obj 72 264 u-len;
#X floatatom 275 319 5 0 0 0 - - -, f 5;
#X obj 213 191 * \$2;
#X obj 183 555 *~;
#X floatatom 324 525 5 0 0 0 - - -, f 5;
#X obj 131 359 dbtorms;
#X floatatom 131 382 12 0 0 0 - - -, f 12;
#X obj 132 330 -;
#X obj 289 500 lop~ 1;
#X obj 242 558 *~;
#X obj 211 218 atan2;
#X floatatom 288 245 5 0 0 0 - - -, f 5;
#X obj 218 247 + 1.56;
#X obj 211 278 u-cardioid 1;
#X obj 277 379 + 0.2;
#X obj 279 453 clip 0 1;
#X obj 242 580 clip~ -1 1;
#X obj 133 308 swap 100;
#X obj 82 295 * 0.5;
#X obj 110 499 *~ 8000;
#X obj 84 524 vcf~ 3;
#X obj 47 156 +;
#X obj 45 76 t f b;
#X obj 76 99 f \$2;
#X obj 87 131 *;
#X connect 1 0 2 0;
#X connect 2 0 3 0;
#X connect 2 0 4 0;
#X connect 4 0 8 0;
#X connect 5 0 16 1;
#X connect 5 0 32 0;
#X connect 7 0 10 0;
#X connect 8 0 33 0;
#X connect 9 0 37 1;
#X connect 10 0 35 0;
#X connect 10 1 11 1;
#X connect 11 0 12 0;
#X connect 11 0 13 0;
#X connect 12 0 15 0;
#X connect 12 1 23 1;
#X connect 13 0 1 0;
#X connect 13 0 31 0;
#X connect 15 0 23 0;
#X connect 16 0 22 0;
#X connect 18 0 19 0;
#X connect 18 0 5 0;
#X connect 20 0 18 0;
#X connect 21 0 22 1;
#X connect 22 0 29 0;
#X connect 23 0 24 0;
#X connect 23 0 25 0;
#X connect 25 0 26 0;
#X connect 26 0 14 0;
#X connect 26 0 27 0;
#X connect 27 0 28 0;
#X connect 28 0 17 0;
#X connect 28 0 21 0;
#X connect 29 0 0 0;
#X connect 30 0 20 0;
#X connect 30 1 20 1;
#X connect 31 0 30 0;
#X connect 32 0 33 1;
#X connect 33 1 16 0;
#X connect 34 0 11 0;
#X connect 35 0 34 0;
#X connect 35 1 36 0;
#X connect 36 0 37 0;
#X connect 37 0 34 1;
