#N canvas 307 191 900 848 10;
#X obj 277 167 inlet~;
#X obj 471 62 inlet position;
#X obj 678 97 inlet head;
#X obj 277 220 delwrite~ \$0-delay 1000;
#X obj 470 142 unpack f f f;
#X obj 540 225 cos;
#X obj 543 202 t f f;
#X obj 543 248 *;
#X obj 581 248 *;
#X obj 580 225 sin;
#X msg 470 100 \$2 \$3 \$1;
#X obj 543 177 * 6.283;
#X obj 615 131 * 8;
#X obj 615 108 atan;
#X obj 615 63 loadbang;
#X obj 615 85 f 1;
#X floatatom 720 241 5 0 0 0 - - -, f 5;
#X obj 719 295 / 100;
#X obj 618 480 outlet~;
#X obj 424 476 outlet~;
#X floatatom 659 346 12 0 0 0 - - -, f 12;
#X floatatom 593 364 12 0 0 0 - - -, f 12;
#X obj 719 317 s ecart;
#X floatatom 478 218 5 0 0 0 - - -, f 5;
#X obj 593 321 unpack f f;
#X obj 543 278 pack f f;
#X obj 616 418 e-spatial-m \$0-delay -1;
#X obj 422 414 e-spatial-m \$0-delay 1;
#X connect 0 0 3 0;
#X connect 1 0 10 0;
#X connect 4 0 11 0;
#X connect 4 2 8 1;
#X connect 4 2 7 1;
#X connect 5 0 7 0;
#X connect 6 0 5 0;
#X connect 6 1 9 0;
#X connect 7 0 25 0;
#X connect 8 0 25 1;
#X connect 9 0 8 0;
#X connect 10 0 4 0;
#X connect 11 0 6 0;
#X connect 11 0 23 0;
#X connect 12 0 11 1;
#X connect 13 0 12 0;
#X connect 14 0 15 0;
#X connect 15 0 13 0;
#X connect 16 0 17 0;
#X connect 17 0 22 0;
#X connect 24 0 21 0;
#X connect 24 1 20 0;
#X connect 25 0 24 0;
#X connect 25 0 26 0;
#X connect 25 0 27 0;
#X connect 26 0 18 0;
#X connect 27 0 19 0;
