#N canvas 350 348 965 606 10;
#X floatatom 35 124 5 0 0 0 - - -, f 5;
#X floatatom 22 195 5 0 0 0 - - -, f 5;
#X msg 35 143 foo \$1;
#X obj 362 252 c-fader foo;
#X msg 22 214 bar \$1;
#X msg 93 71 bar 32 \, foo 64;
#X msg 362 474 foo 60 \, bar 45;
#X obj 362 323 c-fader bar;
#X msg 369 46 save preset2.txt \, bang;
#X obj 427 170 u-load;
#X msg 337 21 save preset1.txt \, bang;
#X obj 433 426 u-save;
#X obj 362 425 u-dump;
#X msg 242 73 dump \, bang;
#X msg 427 96 preset1.txt;
#X msg 452 128 preset2.txt;
#X connect 0 0 2 0;
#X connect 1 0 4 0;
#X connect 2 0 3 0;
#X connect 3 0 7 0;
#X connect 4 0 3 0;
#X connect 5 0 3 0;
#X connect 7 0 12 0;
#X connect 7 0 11 0;
#X connect 8 0 3 0;
#X connect 9 0 3 0;
#X connect 10 0 3 0;
#X connect 12 0 6 0;
#X connect 13 0 3 0;
#X connect 14 0 9 0;
#X connect 15 0 9 0;
