#N canvas 601 482 450 466 10;
#X obj 256 313 mtof;
#X obj 256 335 osc~;
#X msg 95 160 0 100;
#X obj 171 411 *~;
#X obj 171 433 outlet~;
#X obj 148 158 / 127;
#X obj 95 352 vline~;
#X obj 148 255 pack f f;
#X obj 148 192 t f f;
#X obj 180 222 / 2;
#X msg 148 282 \$1 5 \, \$2 50 5;
#X obj 28 6 inlet;
#X msg 95 59 \$2 \$1;
#X obj 95 79 route 0;
#X obj 189 119 unpack f f;
#X obj 28 31 route stop;
#X obj 255 379 cos~;
#X obj 256 357 +~ 0.25;
#X connect 0 0 1 0;
#X connect 1 0 17 0;
#X connect 2 0 6 0;
#X connect 3 0 4 0;
#X connect 5 0 8 0;
#X connect 6 0 3 0;
#X connect 7 0 10 0;
#X connect 8 0 7 0;
#X connect 8 1 9 0;
#X connect 9 0 7 1;
#X connect 10 0 6 0;
#X connect 11 0 15 0;
#X connect 12 0 13 0;
#X connect 13 0 2 0;
#X connect 13 1 14 0;
#X connect 14 0 5 0;
#X connect 14 1 0 0;
#X connect 15 0 2 0;
#X connect 15 1 12 0;
#X connect 16 0 3 1;
#X connect 17 0 16 0;
