#N canvas 185 534 630 503 10;
#X obj 179 52 inlet;
#X msg 179 99 \$2 \$1;
#X obj 179 119 route 0;
#X msg 179 161 0;
#X obj 290 463 outlet;
#X obj 174 268 f;
#X obj 225 150 t b a;
#X msg 225 176 1;
#X msg 257 227 0;
#X obj 290 327 list;
#X obj 290 349 unpack f f f;
#X obj 290 398 +;
#X obj 290 420 pack f f;
#X obj 179 203 metro \$3;
#X obj 173 304 select \$1;
#X obj 209 267 + 1;
#X obj 290 373 * \$2;
#X obj 99 352 t b b;
#X msg 132 397 0 0;
#X obj 330 128 r \$4;
#X obj 323 168 t b f;
#X connect 0 0 1 0;
#X connect 1 0 2 0;
#X connect 2 0 3 0;
#X connect 2 0 18 0;
#X connect 2 1 6 0;
#X connect 3 0 13 0;
#X connect 5 0 15 0;
#X connect 5 0 14 0;
#X connect 6 0 7 0;
#X connect 6 1 8 0;
#X connect 6 1 9 1;
#X connect 7 0 13 0;
#X connect 8 0 5 1;
#X connect 9 0 10 0;
#X connect 10 0 16 0;
#X connect 10 1 12 1;
#X connect 10 2 11 1;
#X connect 11 0 12 0;
#X connect 12 0 4 0;
#X connect 13 0 5 0;
#X connect 14 0 17 0;
#X connect 14 1 9 0;
#X connect 15 0 5 1;
#X connect 16 0 11 0;
#X connect 17 0 18 0;
#X connect 17 1 3 0;
#X connect 18 0 4 0;
#X connect 19 0 20 0;
#X connect 20 0 7 0;
#X connect 20 1 13 1;
