#N canvas 663 372 630 643 10;
#X obj 179 19 inlet;
#X obj 114 565 outlet;
#X obj 179 100 unpack f f;
#X obj 179 122 swap;
#X obj 179 163 route 0;
#X obj 225 207 unpack f f;
#X obj 179 143 pack f f;
#X obj 223 319 metro \$3;
#X obj 77 77 route stop;
#X msg 77 196 stop;
#X msg 127 202 0;
#X obj 87 138 t b b;
#X obj 225 241 t b f;
#X obj 232 475 route 1 0;
#X obj 223 341 f 0;
#X obj 256 342 + 1;
#X obj 195 267 t b b;
#X msg 239 289 0;
#X obj 230 450 pack f f f f;
#X obj 187 392 % 2;
#X obj 223 363 t f f;
#X msg 288 523 \$3 0;
#X obj 243 417 +;
#X msg 209 508 \$1 \$2;
#X obj 275 375 % \$1;
#X obj 352 397 * \$2;
#X connect 0 0 2 0;
#X connect 0 0 8 0;
#X connect 2 0 3 0;
#X connect 2 1 3 1;
#X connect 3 0 6 0;
#X connect 3 1 6 1;
#X connect 4 1 5 0;
#X connect 5 0 12 0;
#X connect 5 1 18 3;
#X connect 5 1 22 1;
#X connect 6 0 4 0;
#X connect 7 0 14 0;
#X connect 8 0 11 0;
#X connect 8 1 2 0;
#X connect 9 0 1 0;
#X connect 10 0 7 0;
#X connect 11 0 9 0;
#X connect 11 1 10 0;
#X connect 12 0 16 0;
#X connect 12 1 18 2;
#X connect 13 0 23 0;
#X connect 13 1 21 0;
#X connect 14 0 15 0;
#X connect 14 0 20 0;
#X connect 15 0 14 1;
#X connect 16 0 7 0;
#X connect 16 1 17 0;
#X connect 17 0 14 1;
#X connect 18 0 13 0;
#X connect 19 0 18 0;
#X connect 20 0 19 0;
#X connect 20 1 24 0;
#X connect 21 0 1 0;
#X connect 22 0 18 1;
#X connect 23 0 1 0;
#X connect 24 0 25 0;
#X connect 25 0 22 0;
