#N canvas 384 424 695 387 10;
#N canvas 65 81 450 250 (subpatch) 0;
#X array \$0-seq 4 float 2;
#X coords 0 24 4 0 200 48 2 0 0;
#X restore 100 132 graph;
#X obj 505 180 %;
#X obj 424 12 loadbang;
#X obj 504 240 tabread \$0-seq;
#X obj 335 356 outlet;
#X obj 456 73 f \$2;
#X obj 504 107 array size \$0-seq;
#X obj 423 41 t b b;
#X obj 470 279 i;
#X obj 470 301 + \$3;
#X obj 336 35 inlet;
#X msg 470 323 \$1 127;
#X obj 340 103 route stop;
#X msg 339 144 stop;
#X connect 1 0 3 0;
#X connect 2 0 7 0;
#X connect 3 0 8 0;
#X connect 5 0 1 1;
#X connect 5 0 6 0;
#X connect 7 1 5 0;
#X connect 8 0 9 0;
#X connect 9 0 11 0;
#X connect 10 0 12 0;
#X connect 11 0 4 0;
#X connect 12 0 13 0;
#X connect 12 1 1 0;
#X connect 13 0 4 0;
#X coords 0 -1 1 1 200 80 1 100 100;
