#N canvas 569 497 553 460 10;
#X obj 220 51 list append \$1 \$2 \$3 \$4 \$5 \$6 \$7 \$8;
#X obj 220 24 loadbang;
#N canvas 272 304 1082 636 init 0;
#X obj 368 31 inlet;
#X obj 342 207 list split 1;
#X obj 342 124 until;
#X obj 342 162 list append;
#X obj 368 91 t b l;
#X obj 472 207 bang;
#X obj 342 241 select 0;
#X obj 425 319 f 0;
#X obj 457 319 + 1;
#X obj 484 382 + 4;
#X obj 391 466 pack s f f f f f f;
#X obj 481 354 * 2;
#X obj 493 408 + 1;
#X obj 394 271 t l b l;
#X obj 531 304 select bass horn;
#X msg 523 336 12 16;
#X obj 541 375 unpack f f;
#X msg 580 335 17 23;
#X msg 640 343 -1 -1;
#X msg 387 519 \; pd-m-general-midi.pd obj \$3 200 route-range \$6
\$7 \; pd-m-general-midi.pd obj \$3 260 outlet \$1 \; pd-m-general-midi.pd
connect 3 0 \$4 0 \; pd-m-general-midi.pd connect \$4 0 \$5 0, f 56
;
#X obj 430 384 * 150;
#X connect 0 0 4 0;
#X connect 1 0 6 0;
#X connect 1 1 3 1;
#X connect 1 2 5 0;
#X connect 2 0 3 0;
#X connect 3 0 1 0;
#X connect 4 0 2 0;
#X connect 4 1 3 1;
#X connect 5 0 2 1;
#X connect 6 1 13 0;
#X connect 7 0 8 0;
#X connect 7 0 10 1;
#X connect 7 0 11 0;
#X connect 7 0 20 0;
#X connect 8 0 7 1;
#X connect 9 0 10 3;
#X connect 9 0 12 0;
#X connect 10 0 19 0;
#X connect 11 0 9 0;
#X connect 12 0 10 4;
#X connect 13 0 10 0;
#X connect 13 1 7 0;
#X connect 13 2 14 0;
#X connect 14 0 15 0;
#X connect 14 1 17 0;
#X connect 14 2 18 0;
#X connect 15 0 16 0;
#X connect 16 0 10 5;
#X connect 16 1 10 6;
#X connect 17 0 16 0;
#X connect 18 0 16 0;
#X connect 20 0 10 2;
#X restore 220 80 pd init;
#X obj 64 90 inlet midi;
#X connect 0 0 2 0;
#X connect 1 0 0 0;
