#N canvas 65 113 450 300 10;
#X obj 97 242 outlet;
#X obj 96 108 metro \$3;
#X obj 96 58 inlet;
#X obj 166 50 loadbang;
#X obj 112 171 random;
#X obj 195 113 f \$2;
#X obj 195 135 - \$1;
#X obj 112 193 + \$1;
#X obj 112 215 pack f 127;
#X obj 163 79 t b b;
#X connect 1 0 4 0;
#X connect 2 0 1 0;
#X connect 3 0 9 0;
#X connect 4 0 7 0;
#X connect 5 0 6 0;
#X connect 6 0 4 1;
#X connect 7 0 8 0;
#X connect 8 0 0 0;
#X connect 9 0 1 0;
#X connect 9 1 5 0;
