#N canvas 330 151 481 861 10;
#X text 18 15 CONTROLS;
#X text 18 155 DEVICES;
#X obj 119 62 c-hsl - 0 43;
#X obj 106 310 m-random;
#X text 18 265 SEQUENCERS;
#X floatatom 144 214 5 0 0 0 - - -, f 5;
#X obj 189 168 d-launchpad - guitar;
#X obj 212 347 dac~;
#X msg 326 196 stop;
#X obj 156 260 print;
#X obj 215 301 *~ 0.3;
#X obj 216 279 u-makepoly 1 1 i-example-m;
#X obj 214 236 m-arpeggio2 14 3 30;
#X connect 6 0 5 0;
#X connect 6 0 12 0;
#X connect 6 1 8 0;
#X connect 8 0 12 0;
#X connect 10 0 7 0;
#X connect 10 0 7 1;
#X connect 11 0 10 0;
#X connect 12 0 9 0;
#X connect 12 0 11 0;
