#N canvas 583 278 450 615 10;
#X obj 175 351 outlet;
#X obj 241 44 inlet;
#X obj 160 166 list split 1;
#X obj 175 327 list;
#X obj 60 233 moses \$1;
#X obj 248 521 outlet;
#X obj 248 491 list;
#X obj 113 257 <= \$2;
#X obj 60 366 bang;
#X obj 113 281 select 0 1;
#X obj 241 68 t l l;
#X connect 1 0 10 0;
#X connect 2 0 4 0;
#X connect 2 1 3 1;
#X connect 3 0 0 0;
#X connect 4 0 8 0;
#X connect 4 1 7 0;
#X connect 6 0 5 0;
#X connect 7 0 9 0;
#X connect 8 0 6 0;
#X connect 9 0 6 0;
#X connect 9 1 3 0;
#X connect 10 0 2 0;
#X connect 10 1 6 1;
