#N canvas 355 155 450 300 10;
#X obj 95 48 inlet;
#X obj 95 70 / 127;
#X obj 95 114 vline~;
#X obj 95 136 *~;
#X obj 96 218 *~;
#X obj 96 240 outlet~;
#X obj 114 169 noise~;
#X obj 114 191 bp~ \$2 5;
#X msg 95 92 \$1 3 \, 0 250 3;
#X connect 0 0 1 0;
#X connect 1 0 8 0;
#X connect 2 0 3 0;
#X connect 2 0 3 1;
#X connect 3 0 4 0;
#X connect 4 0 5 0;
#X connect 6 0 7 0;
#X connect 7 0 4 1;
#X connect 8 0 2 0;
