#N canvas 1087 381 725 634 10;
#X obj 207 11 inlet;
#X obj 207 84 symbol;
#X obj 207 49 route save set;
#X obj 207 130 t s b b;
#X msg 610 281 clear;
#X obj 265 390 list prepend add;
#X obj 265 412 list trim;
#X obj 51 291 list trim;
#X obj 51 269 list prepend write;
#X obj 285 559 textfile;
#X obj 265 341 r u-store-set;
#X obj 230 206 u-list-for;
#X obj 230 233 symbol;
#X msg 230 256 \; u-store-get-\$1 bang;
#X connect 0 0 2 0;
#X connect 1 0 3 0;
#X connect 2 0 1 0;
#X connect 2 1 11 1;
#X connect 3 0 8 0;
#X connect 3 1 11 0;
#X connect 3 2 4 0;
#X connect 4 0 9 0;
#X connect 5 0 6 0;
#X connect 6 0 9 0;
#X connect 7 0 9 0;
#X connect 8 0 7 0;
#X connect 10 0 5 0;
#X connect 11 0 12 0;
#X connect 12 0 13 0;
