#N canvas 763 347 450 300 10;
#X obj 73 61 inlet;
#X obj 73 127 cos;
#X obj 73 149 + 1;
#X obj 73 171 t f f;
#X obj 44 198 cos;
#X obj 44 220 * \$1;
#X obj 44 264 outlet;
#X obj 114 220 * \$1;
#X obj 114 264 outlet;
#X obj 114 198 sin;
#X connect 0 0 1 0;
#X connect 1 0 2 0;
#X connect 2 0 3 0;
#X connect 3 0 4 0;
#X connect 3 1 9 0;
#X connect 4 0 5 0;
#X connect 5 0 6 0;
#X connect 7 0 8 0;
#X connect 9 0 7 0;
