#N canvas 781 355 450 300 10;
#X obj 35 29 inlet;
#X obj 161 260 outlet;
#X obj 161 198 f 0;
#X obj 191 198 + 1;
#X obj 230 17 loadbang;
#X obj 36 81 route stop start;
#X msg 36 127 stop;
#X msg 88 121 0;
#X obj 254 46 r \$1-bpm;
#X obj 254 85 f \$2;
#X obj 254 107 u-bpmtoms;
#X obj 253 161 t b f;
#X obj 161 161 metro;
#X obj 272 209 u-store \$1 bpm \$2;
#X obj 253 133 / 24;
#X connect 0 0 5 0;
#X connect 2 0 3 0;
#X connect 2 0 1 0;
#X connect 3 0 2 1;
#X connect 4 0 9 0;
#X connect 5 0 6 0;
#X connect 5 0 7 0;
#X connect 5 1 12 0;
#X connect 6 0 1 0;
#X connect 7 0 2 1;
#X connect 7 0 12 0;
#X connect 8 0 9 0;
#X connect 9 0 10 0;
#X connect 10 0 14 0;
#X connect 11 0 12 0;
#X connect 11 1 12 1;
#X connect 12 0 2 0;
#X connect 14 0 11 0;
