#N canvas 796 335 450 300 10;
#X obj 35 29 inlet;
#X obj 161 161 metro \$2;
#X obj 161 260 outlet;
#X obj 161 198 f 0;
#X obj 191 198 + 1;
#X obj 221 48 loadbang;
#X obj 36 81 route stop start;
#X msg 36 127 stop;
#X msg 88 121 0;
#X connect 0 0 6 0;
#X connect 1 0 3 0;
#X connect 3 0 4 0;
#X connect 3 0 2 0;
#X connect 4 0 3 1;
#X connect 5 0 1 0;
#X connect 6 0 7 0;
#X connect 6 0 8 0;
#X connect 6 1 1 0;
#X connect 7 0 2 0;
#X connect 8 0 1 0;
#X connect 8 0 3 1;
