#N canvas 979 386 908 675 10;
#X obj 302 24 inlet;
#X obj 203 579 outlet;
#X msg 191 176 set;
#X obj 404 223 list trim;
#X obj 404 174 spigot 0;
#X msg 437 144 1;
#X msg 481 143 0;
#X obj 404 201 list prepend add2;
#X msg 236 400 addcomma;
#X obj 218 340 f;
#X msg 231 175 0;
#X obj 251 340 + 1;
#X obj 191 138 t b b;
#X obj 220 362 moses 1;
#X obj 302 62 route dump bang;
#X obj 404 249 t a b;
#X connect 0 0 14 0;
#X connect 2 0 1 0;
#X connect 3 0 15 0;
#X connect 4 0 7 0;
#X connect 5 0 4 1;
#X connect 6 0 4 1;
#X connect 7 0 3 0;
#X connect 8 0 1 0;
#X connect 9 0 11 0;
#X connect 9 0 13 0;
#X connect 10 0 9 1;
#X connect 11 0 9 1;
#X connect 12 0 2 0;
#X connect 12 1 10 0;
#X connect 13 1 8 0;
#X connect 14 0 5 0;
#X connect 14 0 12 0;
#X connect 14 1 6 0;
#X connect 14 2 4 0;
#X connect 15 0 1 0;
#X connect 15 1 9 0;
