#N canvas 762 369 450 300 10;
#X obj 144 55 inlet;
#X obj 144 77 unpack f f;
#X obj 144 99 *;
#X obj 144 121 +;
#X obj 144 143 sqrt;
#X obj 144 165 outlet;
#X obj 200 102 *;
#X connect 0 0 1 0;
#X connect 1 0 2 0;
#X connect 1 0 2 1;
#X connect 1 1 6 0;
#X connect 1 1 6 1;
#X connect 2 0 3 0;
#X connect 3 0 4 0;
#X connect 4 0 5 0;
#X connect 6 0 3 1;
