#N canvas 65 89 450 300 10;
#X obj 125 202 list split 1;
#X obj 125 119 until;
#X obj 125 157 list append;
#X obj 151 86 t b l;
#X obj 255 202 bang;
#X obj 152 14 inlet;
#X obj 124 261 outlet;
#X obj 221 13 inlet;
#X obj 221 35 list;
#X obj 152 55 list;
#X obj 125 224 list trim;
#X connect 0 0 10 0;
#X connect 0 1 2 1;
#X connect 0 2 4 0;
#X connect 1 0 2 0;
#X connect 2 0 0 0;
#X connect 3 0 1 0;
#X connect 3 1 2 1;
#X connect 4 0 1 1;
#X connect 5 0 9 0;
#X connect 7 0 8 0;
#X connect 8 0 9 1;
#X connect 9 0 3 0;
#X connect 10 0 6 0;
