#N canvas 941 182 450 300 10;
#X obj 85 137 textfile;
#X obj 85 5 inlet load;
#X obj 67 267 outlet;
#X obj 35 136 t b a;
#X msg 85 84 read \$1 \, rewind \, bang;
#X obj 85 54 symbol;
#X msg 138 179 dump \, bang;
#X connect 0 0 3 0;
#X connect 0 1 6 0;
#X connect 1 0 5 0;
#X connect 3 0 0 0;
#X connect 3 1 2 0;
#X connect 4 0 0 0;
#X connect 5 0 4 0;
#X connect 6 0 2 0;
