#N canvas 914 366 450 300 10;
#X obj 67 13 inlet;
#X obj 120 88 i;
#X obj 120 110 change;
#X obj 68 195 outlet;
#X obj 120 66 / \$1;
#X obj 67 35 route stop;
#X msg 67 57 stop;
#X connect 0 0 5 0;
#X connect 1 0 2 0;
#X connect 2 0 3 0;
#X connect 4 0 1 0;
#X connect 5 0 6 0;
#X connect 5 1 4 0;
#X connect 6 0 3 0;
