#N canvas 65 85 506 749 10;
#X obj 109 96 inlet;
#X obj 234 404 spigot 0;
#X msg 267 374 1;
#X msg 311 373 0;
#X obj 109 134 route save bang;
#X obj 501 540 print TODO save this data;
#X obj 163 573 textfile \$1;
#X obj 25 433 list prepend write;
#X obj 25 455 list trim;
#X obj 162 670 print left;
#X obj 237 638 print right;
#X msg 163 435 clear;
#X obj 234 430 list prepend add;
#X obj 234 452 list trim;
#X obj 25 400 symbol;
#X obj 64 376 symbol;
#X obj 295 273 spigot 0;
#X obj 8 278 spigot 0;
#X msg 41 248 1;
#X msg 85 247 0;
#X obj 107 171 t b b;
#X connect 0 0 4 0;
#X connect 1 0 12 0;
#X connect 2 0 1 1;
#X connect 3 0 1 1;
#X connect 4 0 2 0;
#X connect 4 0 11 0;
#X connect 4 0 15 0;
#X connect 4 0 18 0;
#X connect 4 1 3 0;
#X connect 4 1 20 0;
#X connect 4 2 1 0;
#X connect 6 0 9 0;
#X connect 6 1 10 0;
#X connect 7 0 8 0;
#X connect 8 0 6 0;
#X connect 11 0 6 0;
#X connect 12 0 13 0;
#X connect 13 0 6 0;
#X connect 14 0 7 0;
#X connect 15 0 14 1;
#X connect 17 0 14 0;
#X connect 18 0 17 1;
#X connect 19 0 17 1;
#X connect 20 0 19 0;
#X connect 20 1 17 0;
