#N canvas 316 399 1274 520 10;
#X obj 525 331 r storage;
#X obj 836 -2 inlet;
#X obj 527 300 s g-store;
#X msg 711 369 clear;
#X obj 525 443 textfile;
#X obj 525 353 list prepend add;
#X obj 525 375 list trim;
#X obj 380 369 list trim;
#X obj 380 347 list prepend write;
#X obj 823 160 textfile;
#X msg 823 107 read \$1 \, rewind \, bang;
#X obj 988 357 send;
#X obj 982 250 unpack s f;
#X obj 982 322 f;
#X obj 120 174 r storage;
#X obj 122 143 s g-store;
#X obj 120 218 list trim;
#X obj 99 81 t a b b;
#X obj 120 196 list prepend add2;
#X msg 301 303 set;
#X obj 113 279 f;
#X obj 148 280 + 1;
#X msg 251 300 0;
#X obj 81 251 t a b;
#X obj 113 301 select 0;
#X msg 116 334 addcomma;
#X obj 90 433 outlet;
#X obj 983 278 t b s;
#X obj 836 18 route dump save load;
#X obj 298 262 bang;
#X obj 773 159 t b a;
#X obj 504 238 t a b b;
#X obj 823 61 t a b;
#X obj 823 83 symbol;
#X connect 0 0 5 0;
#X connect 1 0 28 0;
#X connect 3 0 4 0;
#X connect 5 0 6 0;
#X connect 6 0 4 0;
#X connect 7 0 4 0;
#X connect 8 0 7 0;
#X connect 9 0 30 0;
#X connect 10 0 9 0;
#X connect 12 0 27 0;
#X connect 12 1 13 1;
#X connect 13 0 11 0;
#X connect 14 0 18 0;
#X connect 16 0 23 0;
#X connect 17 1 15 0;
#X connect 17 2 29 0;
#X connect 18 0 16 0;
#X connect 19 0 26 0;
#X connect 20 0 21 0;
#X connect 20 0 24 0;
#X connect 21 0 20 1;
#X connect 22 0 20 1;
#X connect 23 0 26 0;
#X connect 23 1 20 0;
#X connect 24 1 25 0;
#X connect 25 0 26 0;
#X connect 27 0 13 0;
#X connect 27 1 11 1;
#X connect 28 0 17 0;
#X connect 28 1 31 0;
#X connect 28 2 32 0;
#X connect 28 3 12 0;
#X connect 29 0 19 0;
#X connect 29 0 22 0;
#X connect 30 0 9 0;
#X connect 30 1 12 0;
#X connect 30 1 18 0;
#X connect 31 0 8 0;
#X connect 31 1 2 0;
#X connect 31 2 3 0;
#X connect 31 2 29 0;
#X connect 32 0 33 0;
#X connect 32 1 29 0;
#X connect 33 0 10 0;
