#N canvas 371 367 646 300 10;
#X obj 155 31 loadbang;
#X obj 183 120 s \$1-\$2;
#X obj 155 81 f \$3;
#X obj 182 157 r \$1-\$2;
#X obj 134 268 send storage;
#X obj 136 192 f;
#X obj 133 217 list prepend \$1-\$2;
#X obj 64 125 r g-store;
#X obj 314 267 s u-store-set;
#X obj 306 62 r u-store-get-\$1-\$2;
#X obj 313 213 f;
#X obj 313 235 list prepend \$1-\$2;
#X connect 0 0 2 0;
#X connect 2 0 1 0;
#X connect 2 0 5 1;
#X connect 3 0 5 1;
#X connect 3 0 10 1;
#X connect 5 0 6 0;
#X connect 6 0 4 0;
#X connect 7 0 5 0;
#X connect 9 0 10 0;
#X connect 10 0 11 0;
#X connect 11 0 8 0;
