#N canvas 990 413 450 300 10;
#X obj 253 148 dc~;
#X obj 252 57 osc~ 440;
#X obj 252 188 env~;
#X floatatom 252 210 5 0 0 0 - - -, f 5;
#X obj 327 186 env~;
#X floatatom 327 208 5 0 0 0 - - -, f 5;
#X obj 198 188 env~;
#X floatatom 198 210 5 0 0 0 - - -, f 5;
#X obj 252 94 +~ 13.5;
#X text 27 29 Remove DC offset;
#X connect 0 0 2 0;
#X connect 1 0 6 0;
#X connect 1 0 8 0;
#X connect 2 0 3 0;
#X connect 4 0 5 0;
#X connect 6 0 7 0;
#X connect 8 0 0 0;
#X connect 8 0 4 0;
