#N canvas 65 139 240 483 10;
#X obj 14 21 inlet t;
#X obj 71 22 inlet dataset;
#X obj 14 438 outlet value;
#X obj 71 46 list;
#X obj 32 102 list length;
#X obj 32 124 - 1;
#X obj 14 146 *;
#X obj 14 168 t f f;
#X obj 46 191 i;
#X obj 14 222 -;
#X obj 128 395 *;
#X obj 14 325 swap 1;
#X obj 14 363 -;
#X obj 14 387 *;
#X obj 14 412 +;
#X obj 46 269 list split;
#X obj 46 241 list;
#X obj 46 217 t b f;
#X obj 79 296 unpack f f;
#X obj 14 296 t f f;
#X connect 0 0 6 0;
#X connect 1 0 3 0;
#X connect 3 0 4 0;
#X connect 3 0 16 1;
#X connect 4 0 5 0;
#X connect 5 0 6 1;
#X connect 6 0 7 0;
#X connect 7 0 9 0;
#X connect 7 1 8 0;
#X connect 8 0 9 1;
#X connect 8 0 17 0;
#X connect 9 0 19 0;
#X connect 10 0 14 1;
#X connect 11 0 12 0;
#X connect 11 1 12 1;
#X connect 12 0 13 0;
#X connect 13 0 14 0;
#X connect 14 0 2 0;
#X connect 15 1 18 0;
#X connect 16 0 15 0;
#X connect 17 0 16 0;
#X connect 17 1 15 1;
#X connect 18 0 13 1;
#X connect 18 1 10 1;
#X connect 19 0 11 0;
#X connect 19 1 10 0;
