#N canvas 414 570 602 447 10;
#X obj 134 12 inlet;
#X obj 164 390 outlet;
#X obj 168 194 poly \$1 \$2;
#X obj 134 45 route stop clear;
#X msg 178 92 stop;
#X msg 128 85 clear;
#X obj 166 244 pack f f f;
#X obj 229 116 list split 2;
#X obj 165 341 list append;
#X connect 0 0 3 0;
#X connect 2 0 6 0;
#X connect 2 1 6 1;
#X connect 2 2 6 2;
#X connect 3 0 5 0;
#X connect 3 1 4 0;
#X connect 3 2 7 0;
#X connect 4 0 2 0;
#X connect 5 0 2 0;
#X connect 6 0 8 0;
#X connect 7 0 2 0;
#X connect 7 1 8 1;
#X connect 8 0 1 0;
