#N canvas 65 85 450 300 10;
#X obj 95 41 inlet~ t;
#X obj 94 186 *~;
#X obj 93 221 +~;
#X obj 93 249 outlet~;
#X obj 186 169 / 2;
#X obj 374 205 / 2;
#X obj 186 147 + \$2;
#X obj 197 119 t b f;
#X obj 374 183 - \$1;
#X obj 330 117 t b f;
#X obj 186 15 inlet min;
#X obj 374 13 inlet max;
#X obj 186 67 f \$1;
#X obj 374 65 f \$2;
#X obj 283 11 loadbang;
#X floatatom 335 249 5 0 0 0 - - -, f 5;
#X floatatom 165 243 5 0 0 0 - - -, f 5;
#X connect 0 0 1 0;
#X connect 1 0 2 0;
#X connect 2 0 3 0;
#X connect 4 0 16 0;
#X connect 4 0 2 1;
#X connect 5 0 15 0;
#X connect 5 0 1 1;
#X connect 6 0 4 0;
#X connect 7 0 6 0;
#X connect 7 1 6 1;
#X connect 8 0 5 0;
#X connect 9 0 8 0;
#X connect 9 1 8 1;
#X connect 10 0 12 0;
#X connect 11 0 13 0;
#X connect 12 0 9 0;
#X connect 12 0 6 0;
#X connect 13 0 7 0;
#X connect 13 0 8 0;
#X connect 14 0 12 0;
#X connect 14 0 13 0;
