#N canvas 645 437 450 300 10;
#X obj 160 230 delay;
#X obj 108 281 outlet;
#X obj 108 135 t b b b;
#X obj 202 179 random 100;
#X msg 160 180 stop;
#X obj 108 99 select 1 0;
#X obj 109 33 inlet;
#X obj 202 201 + \$1;
#X obj 330 117 \$2;
#X obj 350 15 loadbang;
#X obj 330 139 -;
#X obj 365 117 \$1;
#X obj 331 90 t b b;
#X obj 228 33 inlet;
#X obj 292 33 inlet;
#X obj 242 78 t b f;
#X obj 350 37 t b b;
#X obj 274 143 t b f;
#X connect 0 0 2 0;
#X connect 2 0 1 0;
#X connect 2 1 0 0;
#X connect 2 2 3 0;
#X connect 3 0 7 0;
#X connect 4 0 0 0;
#X connect 5 0 2 0;
#X connect 5 1 4 0;
#X connect 6 0 5 0;
#X connect 7 0 0 1;
#X connect 8 0 10 0;
#X connect 9 0 16 0;
#X connect 10 0 17 0;
#X connect 11 0 10 1;
#X connect 12 0 8 0;
#X connect 12 1 11 0;
#X connect 13 0 7 1;
#X connect 13 0 15 0;
#X connect 14 0 8 0;
#X connect 15 0 10 0;
#X connect 15 1 11 0;
#X connect 16 1 12 0;
#X connect 17 0 5 0;
#X connect 17 1 3 1;
