#N canvas 1044 376 643 598 10;
#X obj 115 468 vline~;
#X obj 115 519 *~;
#X obj 114 564 dac~;
#X obj 134 493 osc~ 440;
#X obj 115 72 tgl 15 0 empty empty empty 17 7 0 10 -262144 -1 -1 1
1;
#X msg 115 443 1 5 \, 0 30 5;
#X obj 165 121 hsl 128 15 10 10000 1 0 empty empty empty -2 -8 0 10
-262144 -1 -1 4100 1;
#X floatatom 162 141 5 0 0 0 - - -, f 5;
#X obj 213 197 hsl 128 15 10 10000 1 0 empty empty empty -2 -8 0 10
-262144 -1 -1 8200 1;
#X floatatom 210 217 5 0 0 0 - - -, f 5;
#X obj 115 343 vmetro 100 700;
#X text 251 337 Works like metro but with random borned delay;
#X obj 233 334 cnv 15 16 60 empty empty empty 20 12 0 14 -228856 -33289
0;
#X connect 0 0 1 0;
#X connect 1 0 2 0;
#X connect 1 0 2 1;
#X connect 3 0 1 1;
#X connect 4 0 10 0;
#X connect 5 0 0 0;
#X connect 6 0 7 0;
#X connect 7 0 10 1;
#X connect 8 0 9 0;
#X connect 9 0 10 2;
#X connect 10 0 5 0;
