#N canvas 744 500 972 580 10;
#X obj 539 50 noise~;
#X msg 584 85 start;
#X obj 540 234 table \$0-noise \$1;
#X obj 647 39 loadbang;
#X obj 540 121 tabwrite~ \$0-noise;
#X obj 232 262 tabread4~ \$0-noise;
#X obj 232 240 *~ \$1;
#X obj 232 284 outlet~;
#X obj 595 15 inlet phase;
#X obj 595 37 bang;
#X obj 335 82 f \$2;
#X obj 341 41 loadbang;
#X obj 232 165 phasor~ 1;
#X obj 233 41 inlet~;
#X obj 234 111 +~ 0;
#X obj 410 39 inlet offset;
#X connect 0 0 4 0;
#X connect 1 0 4 0;
#X connect 3 0 1 0;
#X connect 5 0 7 0;
#X connect 6 0 5 0;
#X connect 8 0 9 0;
#X connect 9 0 1 0;
#X connect 10 0 14 1;
#X connect 11 0 10 0;
#X connect 12 0 6 0;
#X connect 13 0 14 0;
#X connect 14 0 12 0;
#X connect 15 0 10 0;
