#N canvas 781 141 771 790 10;
#X obj 346 260 osc~;
#X obj 323 678 dac~;
#X obj 347 330 +~ 0.25;
#X obj 347 352 cos~;
#X obj 347 295 *~;
#X obj 437 246 *~ 0.5;
#X obj 346 216 *~ 30;
#X obj 245 403 +~ 0.5;
#X obj 245 381 clip~ -0.5 0.5;
#X obj 220 310 osc~ 1;
#X obj 245 359 *~ 12;
#X obj 340 89 ../lib/vnoise~ 44100 0.0003;
#X obj 436 214 ../lib/vnoise~ 44100 0.0002;
#X obj 438 269 +~ 0.5;
#X obj 346 238 +~ 70;
#X obj 219 261 +~ 4.1;
#X obj 73 278 phasor~;
#X obj 74 329 *~ 2;
#X obj 73 372 -~ 1;
#X obj 72 394 hip~ 1500;
#X obj 72 416 lop~ 1500;
#X obj 105 140 -~;
#X obj 106 237 mtof~;
#X obj 124 115 wrap~;
#X obj 104 209 lop~ 45;
#X obj 105 177 *~ 3;
#X obj 22 168 *~ 3;
#X obj 23 208 mtof~;
#X obj 26 240 *~ 0.6;
#X obj 107 257 *~ 0.4;
#X obj 145 10 hsl 128 15 -1 1 0 0 empty empty empty -2 -8 0 10 -262144
-1 -1 5200 1;
#X obj 136 40 sig~;
#X obj 136 62 lop~ 5;
#X obj 181 148 ../lib/vnoise~ 44100 0.001;
#X obj 343 474 vcf~ 3;
#X obj 335 608 *~ 0.5;
#X obj 33 65 *~ 2;
#X obj 462 363 +~ 0;
#X obj 456 340 *~ 500;
#X obj 34 32 ../lib/vnoise~ 44100 5e-05;
#X obj 575 11 hsl 128 15 1 100 1 0 empty empty empty -2 -8 0 10 -262144
-1 -1 0 1;
#X obj 480 160 sig~;
#X obj 287 74 sig~;
#X obj 569 45 * 1e-06;
#X obj 27 97 +~ 21;
#X obj 601 126 * 1;
#X obj 464 301 ../lib/vnoise~ 44100 0.0004;
#X connect 0 0 4 0;
#X connect 2 0 3 0;
#X connect 4 0 2 0;
#X connect 5 0 13 0;
#X connect 6 0 14 0;
#X connect 8 0 7 0;
#X connect 9 0 10 0;
#X connect 10 0 8 0;
#X connect 11 0 6 0;
#X connect 12 0 5 0;
#X connect 13 0 4 1;
#X connect 14 0 0 0;
#X connect 15 0 9 0;
#X connect 16 0 17 0;
#X connect 17 0 18 0;
#X connect 18 0 19 0;
#X connect 19 0 20 0;
#X connect 20 0 34 0;
#X connect 21 0 25 0;
#X connect 22 0 29 0;
#X connect 23 0 21 1;
#X connect 24 0 22 0;
#X connect 25 0 24 0;
#X connect 26 0 27 0;
#X connect 27 0 28 0;
#X connect 28 0 16 0;
#X connect 29 0 16 0;
#X connect 30 0 31 0;
#X connect 31 0 32 0;
#X connect 33 0 15 0;
#X connect 34 0 35 0;
#X connect 35 0 1 0;
#X connect 35 0 1 1;
#X connect 36 0 44 0;
#X connect 37 0 34 1;
#X connect 38 0 37 0;
#X connect 39 0 36 0;
#X connect 40 0 43 0;
#X connect 41 0 46 0;
#X connect 42 0 39 0;
#X connect 43 0 42 0;
#X connect 43 0 45 0;
#X connect 44 0 21 0;
#X connect 44 0 23 0;
#X connect 44 0 26 0;
#X connect 45 0 41 0;
#X connect 46 0 38 0;
